<svg width="369" height="55" viewBox="0 0 369 55" fill="none" xmlns="http://www.w3.org/2000/svg">
<path d="M27 0L33.0619 18.6565H52.6785L36.8083 30.1869L42.8702 48.8435L27 37.3131L11.1298 48.8435L17.1917 30.1869L1.32147 18.6565H20.9381L27 0Z" fill="#C83636"/>
<path d="M106 1L112.062 19.6565H131.679L115.808 31.1869L121.87 49.8435L106 38.3131L90.1298 49.8435L96.1917 31.1869L80.3215 19.6565H99.9381L106 1Z" fill="#C83636"/>
<path d="M185 0L191.062 18.6565H210.679L194.808 30.1869L200.87 48.8435L185 37.3131L169.13 48.8435L175.192 30.1869L159.321 18.6565H178.938L185 0Z" fill="#C83636"/>
<path d="M263 0L269.062 18.6565H288.679L272.808 30.1869L278.87 48.8435L263 37.3131L247.13 48.8435L253.192 30.1869L237.321 18.6565H256.938L263 0Z" fill="#C83636"/>
<path d="M342 1L348.062 19.6565H367.679L351.808 31.1869L357.87 49.8435L342 38.3131L326.13 49.8435L332.192 31.1869L316.321 19.6565H335.938L342 1Z" fill="#D9D9D9"/>
</svg>
